<?xml version="1.0" standalone="no"?>
<!DOCTYPE svg PUBLIC "-//W3C//DTD SVG 20010904//EN"
 "http://www.w3.org/TR/2001/REC-SVG-20010904/DTD/svg10.dtd">
<svg version="1.0" xmlns="http://www.w3.org/2000/svg"
 width="421.000000pt" height="423.000000pt" viewBox="0 0 421.000000 423.000000"
 preserveAspectRatio="xMidYMid meet">
<metadata>
Created by potrace 1.16, written by Peter Selinger 2001-2019
</metadata>
<g transform="translate(0.000000,423.000000) scale(0.100000,-0.100000)"
fill="#000000" stroke="none">
<path d="M1950 4100 c-41 -11 -117 -41 -169 -66 -160 -79 -273 -215 -318 -385
-17 -64 -25 -291 -10 -305 17 -17 85 92 112 181 l15 50 -6 -94 c-6 -117 -19
-147 -95 -229 -156 -166 -142 -303 45 -437 60 -42 200 -115 221 -115 17 1 145
187 145 212 0 4 -33 8 -73 8 -90 0 -168 22 -209 59 -28 25 -32 35 -32 77 0 61
21 124 40 124 23 0 247 -116 284 -146 46 -39 61 -80 49 -132 -10 -44 -23 -73
-107 -234 -63 -123 -71 -161 -43 -224 12 -26 24 -44 27 -41 4 4 14 34 24 69 9
34 21 63 26 65 5 2 8 -28 6 -70 -4 -67 -2 -76 23 -105 15 -18 31 -32 36 -32 5
0 9 23 9 50 0 28 5 50 10 50 6 0 10 -16 10 -35 0 -51 19 -84 62 -106 20 -10
42 -19 48 -19 6 0 10 23 10 54 0 73 16 80 23 10 3 -31 8 -58 10 -61 3 -2 20 2
39 10 46 19 78 62 78 103 0 19 5 34 10 34 6 0 10 -20 10 -44 0 -25 4 -47 9
-51 6 -3 21 11 35 32 22 31 26 49 26 105 0 38 4 68 8 68 4 0 14 -27 21 -60 8
-33 17 -62 21 -65 4 -2 17 17 29 43 31 66 24 92 -70 278 -124 245 -116 273
112 389 72 37 137 64 144 61 18 -6 35 -68 35 -124 0 -34 -6 -49 -28 -72 -37
-37 -118 -60 -209 -60 -40 0 -73 -3 -73 -8 0 -13 88 -156 115 -185 29 -32 36
-31 130 15 225 112 320 259 254 394 -11 24 -49 74 -85 113 -79 85 -91 113 -98
227 -6 90 0 93 23 8 10 -39 78 -144 93 -144 14 0 20 139 9 221 -34 261 -179
431 -442 520 -124 42 -257 49 -369 19z"/>
<path d="M2880 3569 c-1 -24 -5 -64 -10 -89 -4 -25 -7 -46 -6 -47 5 -5 114
-24 255 -43 80 -12 156 -23 168 -25 18 -4 24 -19 43 -102 61 -283 199 -522
411 -715 89 -82 88 -77 42 -178 -103 -222 -215 -426 -349 -630 -51 -78 -194
-281 -204 -290 -3 -3 -37 -45 -75 -95 -212 -278 -582 -673 -888 -948 -93 -84
-172 -153 -177 -155 -23 -9 -532 477 -731 698 -291 324 -472 560 -705 920 -84
131 -253 459 -290 562 l-14 41 85 79 c216 203 338 415 406 706 19 85 27 104
44 107 115 23 194 27 283 11 50 -9 96 -16 101 -16 4 0 11 33 14 73 4 39 10 82
13 94 5 19 1 22 -38 27 -23 3 -78 10 -121 16 -54 7 -98 7 -145 -1 -37 -5 -121
-13 -187 -17 l-120 -7 -6 -77 c-18 -224 -86 -417 -207 -595 -51 -74 -220 -238
-295 -287 -45 -28 -57 -41 -52 -54 4 -9 12 -30 17 -47 80 -238 268 -601 450
-870 105 -156 288 -400 379 -505 26 -30 89 -104 140 -165 187 -219 775 -790
961 -934 20 -15 34 -4 273 210 144 130 572 559 681 684 108 123 265 313 319
385 27 36 52 67 55 70 8 7 145 200 194 275 199 301 354 602 438 850 23 68 32
53 -82 135 -80 58 -212 197 -269 284 -114 177 -159 315 -189 581 l-7 60 -155
11 c-85 7 -187 19 -227 28 -40 8 -106 18 -147 22 l-76 6 0 -43z"/>
<path d="M1080 3275 c-8 -2 -31 -6 -52 -10 -34 -5 -37 -8 -48 -58 -71 -312
-232 -597 -427 -757 l-42 -35 58 -115 c32 -63 68 -133 81 -155 12 -22 34 -60
48 -85 14 -25 33 -56 42 -70 10 -14 56 -83 103 -155 246 -371 510 -689 899
-1081 143 -143 279 -277 304 -298 l45 -37 138 135 c133 131 139 136 180 136
51 0 90 19 125 60 21 25 26 42 26 84 0 70 -29 114 -93 140 -47 20 -47 20 -94
0 -54 -22 -90 -68 -99 -124 -5 -30 -24 -55 -94 -125 l-88 -88 -39 30 c-62 50
-378 376 -528 547 -331 375 -637 805 -791 1107 l-25 51 69 76 c130 145 237
337 308 552 26 79 41 111 55 115 21 7 24 22 10 57 -5 13 -14 42 -20 66 -11 40
-16 44 -51 37z"/>
<path d="M3032 3206 c-26 -90 -26 -83 -2 -89 20 -5 36 -35 44 -83 5 -24 58
-169 75 -202 5 -10 26 -51 46 -92 53 -105 127 -213 202 -293 34 -37 63 -71 63
-75 0 -11 -67 -138 -116 -221 -137 -226 -274 -421 -488 -693 -56 -70 -64 -77
-97 -78 -68 0 -139 -74 -139 -143 0 -37 33 -96 68 -122 37 -27 122 -27 159 1
47 35 67 71 68 121 1 40 8 54 56 112 31 36 98 122 149 191 51 69 105 141 119
160 27 35 127 186 193 290 45 71 146 253 194 353 l38 77 -24 17 c-90 62 -212
206 -283 334 -66 119 -148 337 -161 431 -8 55 -18 62 -92 72 l-51 6 -21 -74z"/>
<path d="M2911 2936 c-12 -19 -38 -48 -59 -64 -37 -30 -37 -30 -24 -69 38
-110 194 -403 231 -433 34 -28 33 -39 -5 -102 -33 -54 -104 -164 -161 -248
-53 -78 -257 -344 -352 -459 -95 -115 -433 -480 -452 -489 -7 -3 -290 292
-375 392 -52 61 -59 74 -60 115 -1 63 -25 105 -74 129 -75 37 -156 12 -192
-59 -49 -94 6 -198 113 -215 31 -5 51 -22 129 -113 136 -155 440 -471 455
-471 15 0 267 257 431 440 181 203 366 436 516 650 53 77 205 320 232 372 l18
37 -59 73 c-100 122 -170 246 -240 427 -24 64 -46 117 -48 119 -1 2 -12 -13
-24 -32z"/>
<path d="M1216 2912 c-60 -168 -170 -372 -268 -495 l-56 -71 24 -45 c30 -56
48 -85 133 -221 63 -100 66 -107 63 -158 -4 -51 8 -84 42 -117 39 -38 131 -43
181 -11 60 39 80 118 47 182 -25 50 -36 59 -90 75 -38 11 -49 22 -89 83 -70
108 -113 183 -113 198 0 7 13 29 28 48 41 50 100 150 154 262 37 74 88 194 88
204 0 1 -17 13 -38 28 -22 15 -45 37 -52 51 -22 41 -37 37 -54 -13z"/>
<path d="M1410 2579 c-7 -17 -42 -80 -77 -142 -36 -62 -65 -115 -66 -118 -2
-5 95 -155 160 -249 116 -167 375 -487 523 -645 47 -50 97 -103 111 -118 l25
-28 75 78 c41 43 93 99 115 126 29 33 49 47 67 47 33 0 88 24 108 47 53 59 48
146 -11 205 -34 35 -42 38 -91 38 -89 0 -136 -43 -146 -132 -5 -46 -14 -62
-61 -116 l-55 -62 -52 57 c-194 215 -399 475 -544 691 l-42 63 20 32 c11 18
33 59 50 91 36 68 35 69 -50 131 l-47 34 -12 -30z"/>
<path d="M2735 2600 c-4 -6 -26 -20 -49 -29 -73 -32 -75 -41 -30 -128 21 -41
45 -86 52 -100 13 -22 10 -29 -28 -89 -36 -54 -47 -64 -71 -64 -37 0 -94 -50
-109 -96 -35 -106 73 -217 178 -183 75 24 118 89 107 162 -6 38 -2 48 37 107
24 36 54 82 66 102 l23 36 -40 65 c-22 36 -58 100 -81 144 -49 91 -46 88 -55
73z"/>
</g>
</svg>
