<svg xmlns="http://www.w3.org/2000/svg" viewBox="0 0 650 157" width="650" height="157"><path d="M184.679 98.031l-4.775-11.106h-34.873l-4.775 11.106h-18.731l38.124-86.792h5.809l37.973 86.792h-18.752zm-10.845-25.443l-11.367-28.803L151.1 72.588h22.734zm34.091-6.591c-.171-8.938 3.44-17.532 9.942-23.667 6.446-6.386 15.207-9.884 24.279-9.691 12.567 0 21.824 5.254 27.77 15.761l-12.139 9.421c-4.307-6.2-9.431-9.297-15.37-9.29-4.546-.126-8.928 1.7-12.039 5.016a17.36 17.36 0 0 0-4.715 12.46c-.166 4.657 1.531 9.188 4.715 12.591a15.87 15.87 0 0 0 12.039 5.016c5.939 0 11.063-3.057 15.37-9.17l12.139 9.3c-2.696 4.847-6.642 8.883-11.427 11.688a31.74 31.74 0 0 1-16.343 4.194c-9.1.284-17.904-3.252-24.279-9.752-6.596-6.157-10.219-14.858-9.942-23.877zm74.261 3.872V34.103h17.427v37.191a11.65 11.65 0 0 0 12.149 12.27c3.192.099 6.281-1.141 8.518-3.421a12.11 12.11 0 0 0 3.361-8.849V34.103h17.437v35.766c0 8.789-2.779 15.935-8.337 21.44s-12.551 8.26-20.978 8.267c-8.621 0-15.704-2.732-21.249-8.197s-8.321-12.634-8.328-21.51zm134.306-11.487v39.649h-17.306V60.7a12.39 12.39 0 0 0-3.291-8.969 11.4 11.4 0 0 0-8.588-3.381 11.82 11.82 0 0 0-8.718 3.421 12.11 12.11 0 0 0-3.421 8.969v37.331h-17.437V34.103h16.052v5.809c4.822-4.829 11.066-7.24 18.731-7.233 7.404 0 13.256 2.324 17.557 6.973s6.441 10.891 6.421 18.73zm75.555 13.554h-44.815a15.68 15.68 0 0 0 6.26 9.37 19.96 19.96 0 0 0 11.688 3.291 28.71 28.71 0 0 0 17.838-6.461l7.234 11.889c-7.096 6.159-16.177 9.551-25.573 9.551a33.8 33.8 0 0 1-24.991-9.621c-6.653-6.103-10.316-14.803-10.033-23.827-.297-8.949 3.227-17.602 9.691-23.797a31.54 31.54 0 0 1 23.767-9.691c8.782 0 15.992 2.843 21.63 8.528a28.86 28.86 0 0 1 8.457 21.229 40.89 40.89 0 0 1-1.153 9.539zm-44.815-12.26h29.094c.026-3.552-1.472-6.945-4.113-9.32a14.05 14.05 0 0 0-9.752-3.552c-3.545-.056-6.988 1.186-9.681 3.491-2.826 2.437-4.775 5.732-5.548 9.381zM554.62 10.858c-.075-2.927 1.1-5.747 3.23-7.755 2.103-2.049 4.941-3.166 7.876-3.1 2.954-.057 5.811 1.058 7.946 3.1 2.158 1.993 3.357 4.818 3.291 7.755.053 2.894-1.147 5.67-3.291 7.615-2.135 2.042-4.992 3.157-7.946 3.1-2.935.066-5.773-1.052-7.876-3.1a10.14 10.14 0 0 1-3.23-7.615zm2.458 87.173V34.103h17.427V98.03h-17.427zm92.851 0h-19.503l-13.684-20.406-13.825 20.406h-19.493L606.8 65.094l-21.831-30.991h19.503l12.27 18.47 12.139-18.47h19.493l-21.951 30.86 23.506 33.068zM530.893 18.723h-17.266v15.992h-12.641v14.578h12.641.201v48.738h16.904V49.293h.161 15.37V34.715h-15.37zM88.146 54.7c0-24.712-20.033-44.745-44.745-44.745h0-1.003v28.232h1.003c9.142 0 16.554 7.411 16.554 16.554s-7.411 16.554-16.554 16.554h-1.003v28.222h1.003c8.722.015 17.256-2.536 24.54-7.334h0l2.588 6.02h17.687l-.07-43.503z" fill="#fff"/><path d="M34.281 98.733a2.45 2.45 0 0 1-2.448-2.448V71.083a2.45 2.45 0 0 1 2.448-2.448 2.45 2.45 0 0 1 2.448 2.448v25.202a2.45 2.45 0 0 1-2.448 2.448zM2.458 73.11A2.46 2.46 0 0 1 0 70.652V38.748a2.46 2.46 0 0 1 2.61-2.296 2.46 2.46 0 0 1 2.296 2.296v31.904a2.46 2.46 0 0 1-2.448 2.458zm10.614-27.991a2.46 2.46 0 0 1-2.458-2.448V23.78a2.46 2.46 0 0 1 2.296-2.61 2.46 2.46 0 0 1 2.61 2.296 2.35 2.35 0 0 1 0 .314v18.891a2.45 2.45 0 0 1-2.448 2.448zm0 43.19a2.46 2.46 0 0 1-2.458-2.448V54.58a2.46 2.46 0 0 1 2.296-2.61 2.46 2.46 0 0 1 2.61 2.296 2.35 2.35 0 0 1 0 .314v31.282a2.45 2.45 0 0 1-2.448 2.447zm10.605 6.822a2.46 2.46 0 0 1-2.458-2.448V75.929a2.46 2.46 0 0 1 2.61-2.296 2.46 2.46 0 0 1 2.296 2.296v16.754a2.45 2.45 0 0 1-2.448 2.448zm0-28.873a2.46 2.46 0 0 1-2.458-2.458V16.055a2.46 2.46 0 0 1 2.296-2.61 2.46 2.46 0 0 1 2.61 2.296 2.35 2.35 0 0 1 0 .314V63.8a2.46 2.46 0 0 1-2.448 2.458zm10.604-25.363a2.46 2.46 0 0 1-2.448-2.458V13.125a2.45 2.45 0 0 1 2.448-2.448 2.45 2.45 0 0 1 2.448 2.448v25.312a2.46 2.46 0 0 1-2.448 2.458z" fill="#fa4216"/><path d="M506.484 140.268a10.52 10.52 0 0 1-.742 4.013 9.23 9.23 0 0 1-2.007 3.01c-.84.838-1.845 1.494-2.95 1.926-1.146.455-2.369.687-3.602.682-.958.014-1.908-.16-2.799-.512a5.92 5.92 0 0 1-2.007-1.234v1.334h-5.347v-26.446h5.458v9.13c.575-.469 1.217-.848 1.906-1.124.882-.357 1.828-.531 2.779-.512 1.235-.003 2.458.236 3.602.702a8.89 8.89 0 0 1 2.95 2.007 9.44 9.44 0 0 1 2.007 3.07c.504 1.258.76 2.6.752 3.954zm-14.046 0a5.09 5.09 0 0 0 1.194 3.501 3.89 3.89 0 0 0 3.01 1.344c1.174.024 2.299-.467 3.08-1.344a5.59 5.59 0 0 0 0-7.023c-.781-.877-1.906-1.368-3.08-1.344-1.153-.02-2.255.473-3.01 1.344-.827.982-1.253 2.24-1.194 3.522zm25.694 16.624h-5.678l3.01-7.344-7.233-18.55h6.02l4.164 11.467 4.314-11.467h5.749l-10.346 25.894zm25.342-7.344v-26.506h5.598v26.506h-5.598zm16.724-9.28v9.28h-5.367v-18.55h5.297v1.284a6.64 6.64 0 0 1 1.876-1.234 6.03 6.03 0 0 1 2.518-.512c2.047-.086 4.037.689 5.488 2.137 1.471 1.671 2.218 3.858 2.077 6.08v10.795h-5.377v-10.374a4.43 4.43 0 0 0-.732-2.558 2.66 2.66 0 0 0-2.368-1.084 2.8 2.8 0 0 0-2.649 1.314 6.78 6.78 0 0 0-.763 3.422zm33.77-9.27l-6.612 18.55h-5.528l-6.511-18.55h5.719l3.632 11.467 3.642-11.467h5.658zm3.14-5.267a3.09 3.09 0 0 1 .913-2.217 3.01 3.01 0 0 1 2.197-.923 3.15 3.15 0 0 1 3.14 3.14 3.01 3.01 0 0 1-.923 2.197 3.09 3.09 0 0 1-2.217.913 3.12 3.12 0 0 1-3.11-3.11zm.421 23.817v-18.55h5.377v18.55h-5.377zm24.379-7.043l3.632 3.521a9.96 9.96 0 0 1-3.421 2.889c-1.469.706-3.086 1.05-4.715 1.003-1.331.012-2.65-.24-3.883-.742a9.63 9.63 0 0 1-3.1-2.007c-.884-.877-1.587-1.921-2.067-3.07a10.29 10.29 0 0 1 0-7.725 9.49 9.49 0 0 1 2.077-3.05 9.38 9.38 0 0 1 3.1-2.007c1.233-.499 2.552-.751 3.883-.742a8.88 8.88 0 0 1 4.444 1.003c1.241.709 2.362 1.61 3.321 2.669l-3.642 3.521a8.03 8.03 0 0 0-1.716-1.555c-.665-.412-1.435-.622-2.217-.602-1.201-.027-2.36.446-3.2 1.304a4.96 4.96 0 0 0 0 6.702 4.34 4.34 0 0 0 3.2 1.304 4.39 4.39 0 0 0 2.418-.642 7.42 7.42 0 0 0 1.886-1.774zm14.237 7.113a6.33 6.33 0 0 1-4.886-1.726 6.93 6.93 0 0 1-1.585-4.896v-7.023h-2.428v-4.956h2.428v-5.187h5.367v5.187h4.093v4.956h-4.093v6.401a2.13 2.13 0 0 0 .632 1.836c.553.34 1.199.498 1.846.451h1.585v4.926l-2.959.031zm7.604-23.887a3.01 3.01 0 0 1 3.11-3.14 3.17 3.17 0 0 1 3.14 3.14c.014.831-.325 1.63-.933 2.197a3.01 3.01 0 0 1-2.207.913 3.01 3.01 0 0 1-2.197-.913c-.593-.576-.923-1.371-.913-2.197zm.422 23.817v-18.55h5.388v18.55h-5.388z" fill="#fff"/></svg>