<svg xmlns="http://www.w3.org/2000/svg" xmlns:xlink="http://www.w3.org/1999/xlink" xml:space="preserve" id="logo" width="100%" height="100%" viewBox="0 0 219.38 33"><path fill-rule="evenodd" clip-rule="evenodd" fill="#FFFFFF" d="M65.746 28.643h4.613V7.15h-4.613v2.616h-0.089c-0.61-0.928-1.501-1.688-2.672-2.278 -1.171-0.591-2.562-0.896-4.172-0.915 -2.336 0.042-4.353 0.628-6.048 1.76 -1.695 1.132-3.003 2.558-3.923 4.278 -0.921 1.719-1.386 3.481-1.397 5.286 0.007 1.89 0.446 3.689 1.319 5.406 0.873 1.713 2.139 3.12 3.797 4.216 1.658 1.098 3.668 1.665 6.03 1.703 1.486-0.011 2.847-0.298 4.083-0.865 1.236-0.567 2.23-1.342 2.983-2.328h0.089V28.643L65.746 28.643zM52.326 17.896c0.051-1.982 0.725-3.628 2.022-4.937 1.296-1.311 2.903-1.99 4.821-2.039 1.876 0.049 3.457 0.728 4.744 2.039 1.287 1.309 1.957 2.956 2.01 4.937 -0.054 1.982-0.724 3.627-2.01 4.937 -1.287 1.312-2.867 1.99-4.744 2.039 -1.918-0.049-3.525-0.726-4.821-2.039C53.051 21.524 52.377 19.878 52.326 17.896L52.326 17.896zM96.122 11.765c-1.029-1.537-2.325-2.78-3.887-3.728 -1.562-0.949-3.48-1.437-5.752-1.464 -2.509 0.034-4.646 0.592-6.409 1.672 -1.764 1.08-3.11 2.476-4.04 4.188 -0.929 1.712-1.398 3.533-1.405 5.464 0.008 1.93 0.476 3.752 1.405 5.463 0.93 1.713 2.276 3.109 4.04 4.188 1.763 1.082 3.9 1.637 6.409 1.673 2.07-0.027 3.949-0.515 5.636-1.464 1.687-0.949 3.022-2.19 4.003-3.728l-4.042-2.399c-0.619 0.989-1.391 1.776-2.315 2.356 -0.925 0.578-2.019 0.875-3.282 0.886 -2.059-0.049-3.727-0.726-5.003-2.039 -1.276-1.31-1.933-2.955-1.97-4.937 0.037-1.982 0.694-3.628 1.97-4.937 1.276-1.311 2.944-1.99 5.003-2.039 1.302 0.015 2.407 0.318 3.315 0.906 0.907 0.588 1.668 1.367 2.282 2.338L96.122 11.765 96.122 11.765zM100.125 19.588c0.026 2.02 0.496 3.747 1.409 5.181 0.913 1.434 2.109 2.532 3.589 3.297 1.48 0.761 3.086 1.147 4.816 1.155 1.73-0.008 3.335-0.394 4.815-1.155 1.48-0.764 2.676-1.863 3.589-3.297 0.914-1.434 1.383-3.161 1.41-5.181V7.15h-4.614v12.036c-0.038 1.605-0.543 2.904-1.518 3.893 -0.973 0.99-2.201 1.497-3.682 1.526 -1.481-0.03-2.709-0.537-3.684-1.526 -0.974-0.989-1.48-2.288-1.516-3.893V7.15h-4.614V19.588L100.125 19.588zM125.62 28.643h4.615V16.606c0.035-1.761 0.542-3.103 1.526-4.026 0.984-0.922 2.239-1.386 3.763-1.393 1.553-0.015 2.789 0.415 3.703 1.288 0.917 0.874 1.386 2.28 1.407 4.219v11.949h4.615V15.673c-0.065-2.711-0.889-4.894-2.475-6.548 -1.584-1.656-3.544-2.506-5.873-2.552 -1.477 0.011-2.779 0.31-3.906 0.893 -1.125 0.583-2.017 1.38-2.671 2.391h-0.089V7.15h-4.615V28.643L125.62 28.643zM167.813 21.806c-0.805 1.071-1.73 1.895-2.777 2.467 -1.049 0.572-2.196 0.862-3.443 0.867 -1.675-0.03-3.145-0.561-4.403-1.591 -1.261-1.03-1.985-2.381-2.172-4.056h17.855V18.65c-0.054-2.792-0.686-5.08-1.892-6.862 -1.206-1.783-2.665-3.099-4.37-3.949 -1.708-0.85-3.335-1.272-4.885-1.265 -2.508 0.034-4.647 0.592-6.409 1.672 -1.765 1.08-3.11 2.476-4.04 4.188 -0.93 1.712-1.399 3.533-1.404 5.463 0.006 1.93 0.475 3.752 1.404 5.463 0.93 1.713 2.275 3.109 4.04 4.188 1.762 1.082 3.901 1.637 6.409 1.673 1.947-0.036 3.774-0.507 5.479-1.421 1.708-0.911 3.212-2.183 4.513-3.817L167.813 21.806 167.813 21.806zM155.019 15.679c0.402-1.61 1.145-2.848 2.226-3.714 1.084-0.865 2.37-1.302 3.861-1.312 1.485 0.004 2.786 0.43 3.907 1.278 1.119 0.848 1.935 2.098 2.445 3.747H155.019L155.019 15.679zM175.545 11.497h2.621v9.327c-0.005 2.171 0.561 3.85 1.703 5.032 1.141 1.182 2.898 2.305 5.265 3.365l2.044-3.644 -2.486-1.421c-0.683-0.379-1.174-0.886-1.472-1.521 -0.301-0.635-0.445-1.518-0.439-2.654v-8.484h3.687V7.15h-3.687V0.177l-4.614 1.288V7.15h-2.621V11.497L175.545 11.497zM190.735 28.643h4.617V7.15h-4.617V28.643L190.735 28.643zM190.469 2.752c0.019 0.729 0.271 1.336 0.753 1.821 0.485 0.485 1.093 0.736 1.822 0.754 0.727-0.018 1.334-0.27 1.819-0.754 0.483-0.485 0.735-1.092 0.754-1.821 -0.019-0.729-0.272-1.336-0.754-1.822 -0.485-0.484-1.092-0.736-1.819-0.754 -0.729 0.018-1.337 0.27-1.822 0.754C190.74 1.416 190.489 2.023 190.469 2.752L190.469 2.752z"></path><polygon fill="#FFFFFF" points="198.776,28.643 204.238,28.643 208.989,21.448 213.519,28.643 219.38,28.643 211.521,17.85    219.068,7.15 213.651,7.15 209.254,14.52 204.77,7.15 198.998,7.15 206.592,18.116 198.776,28.643  "></polygon><path fill="#E11F26" d="M14.404 23.11c0-3.362 2.727-6.089 6.09-6.089 3.364 0 6.09 2.727 6.09 6.089 0 3.364-2.727 6.092-6.09 6.092C17.13 29.201 14.404 26.474 14.404 23.11L14.404 23.11zM20.498 14.55c-4.727 0-8.566 3.831-8.566 8.559 0 0.849 0.126 1.67 0.357 2.443 0.076 0.42 0.124 0.851 0.124 1.29 0 3.305-2.677 5.98-5.98 5.98 -2.461 0-4.576-1.486-5.493-3.611 -0.224-0.524-0.453-1.385-0.591-2.039C0.132 25.712 0 24.639 0 23.11 0 11.792 9.175 2.616 20.494 2.616c11.319 0 20.494 9.175 20.494 20.493 0 1.529-0.132 2.602-0.35 4.064 -0.138 0.654-0.366 1.515-0.59 2.039 -0.918 2.125-3.033 3.611-5.494 3.611 -3.303 0-5.98-2.676-5.98-5.98 0-0.439 0.048-0.871 0.123-1.29 0.232-0.773 0.357-1.594 0.357-2.443C29.055 18.381 25.227 14.55 20.498 14.55L20.498 14.55z"></path></svg>
