<svg xmlns="http://www.w3.org/2000/svg" viewBox="0 0 267 41" width="267" height="41">
  <path
    d="M75.87 40.27l-1.96-4.56H59.58l-1.96 4.56h-7.69L65.57 4.62h2.39l15.6 35.65h-7.69zm-4.46-10.45l-4.67-11.83-4.67 11.83h9.34zm14.01-2.71c0-3.82 1.36-7.06 4.09-9.71 2.72-2.65 6.05-3.98 9.97-3.98 5.16 0 8.97 2.16 11.41 6.47l-4.99 3.87c-1.77-2.55-3.87-3.82-6.31-3.82-2.02 0-3.67.68-4.96 2.04s-1.94 3.07-1.94 5.12c0 2.09.64 3.81 1.94 5.17 1.29 1.36 2.94 2.04 4.96 2.04 2.44 0 4.54-1.26 6.31-3.77l4.99 3.82c-1.17 2.05-2.73 3.65-4.7 4.8-1.96 1.15-4.2 1.72-6.71 1.72-3.86.07-7.18-1.26-9.97-4.01-2.8-2.71-4.17-5.97-4.09-9.76zm30.5 1.59V14h7.16v15.28c0 1.52.47 2.74 1.41 3.66s2.13 1.38 3.58 1.38c1.41 0 2.58-.47 3.5-1.41s1.38-2.15 1.38-3.63V14.01h7.16v14.7c0 3.61-1.14 6.54-3.42 8.81-2.28 2.26-5.16 3.4-8.62 3.4-3.54 0-6.45-1.12-8.73-3.37-2.28-2.26-3.42-5.2-3.42-8.85zm55.18-4.72v16.29h-7.11V24.94c0-1.52-.45-2.75-1.35-3.69s-2.08-1.41-3.53-1.41-2.64.47-3.58 1.41-1.41 2.17-1.41 3.69v15.33h-7.16V14.01h6.58v2.39c1.98-1.98 4.54-2.97 7.69-2.97 3.04 0 5.45.95 7.22 2.87 1.76 1.9 2.65 4.46 2.65 7.68zm31.04 5.57h-18.41c.42 1.66 1.28 2.94 2.57 3.85 1.29.9 2.89 1.35 4.8 1.35 2.58 0 5.02-.88 7.32-2.65l2.97 4.88c-3.15 2.62-6.65 3.93-10.51 3.93-4.03.07-7.45-1.25-10.27-3.95-2.81-2.71-4.18-5.97-4.11-9.79-.07-3.78 1.26-7.04 3.98-9.76s5.98-4.05 9.76-3.98c3.61 0 6.57 1.17 8.89 3.5s3.47 5.23 3.47 8.7c.01 1.27-.15 2.58-.46 3.92zm-18.41-5.04h11.94c-.04-1.59-.59-2.87-1.67-3.85-1.08-.97-2.41-1.46-4.01-1.46-1.52 0-2.85.48-3.98 1.43-1.14.96-1.9 2.26-2.28 3.88zm44.11-20.05c0-1.27.44-2.33 1.33-3.18.88-.85 1.96-1.27 3.24-1.27 1.27 0 2.36.42 3.26 1.27s1.35 1.91 1.35 3.18a4.13 4.13 0 0 1-1.35 3.13c-.9.85-1.99 1.27-3.26 1.27s-2.35-.42-3.24-1.27c-.88-.85-1.33-1.89-1.33-3.13zm1.01 35.81V14.01h7.16v26.26h-7.16zm38.15 0h-8.01l-5.62-8.38-5.68 8.38h-8.01l9.6-13.53-8.97-12.73h8.01l5.04 7.59 4.99-7.59h8.01l-9.02 12.68L267 40.27zM218.1 7.69h-7.09v6.57h-5.2v5.99h5.28v20.02h6.94V20.25h6.38v-5.99h-6.31zM36.21 22.47c0-10.15-8.23-18.38-18.38-18.38h-.4v11.59c.13-.01.27-.01.4-.01a6.8 6.8 0 0 1 6.79 6.79c0 3.75-3.05 6.8-6.79 6.8-.14 0-.27 0-.4-.01v11.59h.4c3.72 0 7.19-1.11 10.08-3.01v.01l1.06 2.45h7.27l-.03-17.82z"
    fill="#1d1c29"/>
  <path
    d="M14.08 40.56c-.56 0-1.01-.45-1.01-1.01V29.2c0-.56.45-1.01 1.01-1.01s1.01.45 1.01 1.01v10.35c0 .56-.45 1.01-1.01 1.01zM1.01 30.03c-.56 0-1.01-.45-1.01-1.01v-13.1c0-.56.45-1.01 1.01-1.01s1.01.45 1.01 1.01v13.11c0 .55-.46 1-1.01 1zm4.35-11.5c-.56 0-1.01-.45-1.01-1.01V9.76c0-.56.45-1.01 1.01-1.01s1.01.45 1.01 1.01v7.76c0 .56-.45 1.01-1.01 1.01zm0 17.75c-.56 0-1.01-.45-1.01-1.01V22.42c0-.56.45-1.01 1.01-1.01s1.01.45 1.01 1.01v12.85c0 .56-.45 1.01-1.01 1.01zm4.36 2.8c-.56 0-1.01-.45-1.01-1.01v-6.88c0-.56.45-1.01 1.01-1.01s1.01.45 1.01 1.01v6.88c0 .56-.45 1.01-1.01 1.01zm0-11.86c-.56 0-1.01-.45-1.01-1.01V6.59c0-.56.45-1.01 1.01-1.01s1.01.45 1.01 1.01v19.62c0 .55-.45 1.01-1.01 1.01zm4.36-10.42c-.56 0-1.01-.45-1.01-1.01V5.39c0-.56.45-1.01 1.01-1.01s1.01.45 1.01 1.01v10.4c0 .56-.45 1.01-1.01 1.01z"
    fill="#fa4216"/>
  <defs/>
</svg>
