<svg
   xmlns="http://www.w3.org/2000/svg"
   viewBox="0 0 24 24"
   height="24"
   width="24">
  <path
     style="stroke-width:0.78248578"
     id="path28"
     d="M 16.519773,7.0776827 H 14.320988 C 13.96887,6.4673438 13.48373,5.9430782 12.896863,5.5440105 L 14.172317,4.2685585 13.069013,3.1652536 11.371015,4.8632477 C 11.011076,4.777175 10.643305,4.730225 10.259886,4.730225 c -0.3834176,0 -0.751185,0.04695 -1.1033048,0.1330227 L 7.4507625,3.1652536 6.3474573,4.2685585 7.615084,5.5440105 C 7.0360444,5.9430782 6.5509042,6.4673438 6.1987856,7.0776827 H 3.9999996 V 8.6426539 H 5.6353947 C 5.5962668,8.9008744 5.5649723,9.1590952 5.5649723,9.4251402 V 10.207626 H 4.0000009 v 1.564972 h 1.5649726 v 0.782484 c 0,0.266047 0.031295,0.524267 0.070422,0.782485 H 4.0000009 v 1.564972 h 2.1987859 c 0.8137848,1.40065 2.3239824,2.347459 4.0611002,2.347459 1.737121,0 3.247319,-0.946809 4.061102,-2.347459 h 2.198785 V 13.337567 H 14.88438 c 0.03911,-0.258218 0.07041,-0.516438 0.07041,-0.782485 v -0.782484 h 1.564972 v -1.564972 h -1.56496 V 9.4251402 c 0,-0.266045 -0.03129,-0.5242658 -0.07041,-0.7824863 h 1.635396 z M 11.82486,13.337567 H 8.6949151 V 11.772598 H 11.82486 Z m 0,-3.129941 H 8.6949151 V 8.6426539 H 11.82486 Z" />
  <path
     style="stroke-width:1.07251287"
     id="path2"
     d="m 18.726366,17.085227 h -0.850884 l -0.301579,-0.288354 -0.753947,0.747584 v 0 l 0.290808,0.299035 v 0.843702 l 5.385337,5.329208 1.604831,-1.591287 z" />
  <path
     id="path4"
     d="m 10.271187,0.27118599 c -5.5200002,0 -10.00000021,4.48000001 -10.00000021,10.00000001 0,5.52 4.48000001,10 10.00000021,10 5.519999,0 9.999999,-4.48 9.999999,-10 0,-5.52 -4.48,-10.00000001 -9.999999,-10.00000001 z m 0,18.00000001 c -4.4200002,0 -8.0000002,-3.58 -8.0000002,-8 0,-4.42 3.58,-8 8.0000002,-8 4.419999,0 7.999999,3.58 7.999999,8 0,4.42 -3.58,8 -7.999999,8 z" />
</svg>
