<?xml version="1.0" encoding="UTF-8" standalone="no"?>
<svg
   xmlns="http://www.w3.org/2000/svg"
   height="24"
   viewBox="0 0 24 24"
   width="24"
   version="1.1"
   id="svg6"
   >
  <defs
     id="defs10" />
  <path
     d="M0 0h24v24H0z "
     fill="none"
     id="path2" />
  <path
     d="M6 2c-1.1 0-1.99.9-1.99 2L4 20c0 1.1.89 2 1.99 2H18c1.1 0 2-.9 2-2V8l-6-6H6zm7 7V3.5L18.5 9H13z"
     id="path4" />
  <path
   fill="white"
     d="m 10.877119,14.220339 h 2 l -0.5,2 h -2 l 0.5,-2 m 4.75,-1 h -1.5 l 0.5,-2 h -1 l -0.5,2 h -2 l 0.5,-2 h -1 l -0.5,2 H 8.6271189 v 1 h 1.25 l -0.5,2 h -1.75 v 1 h 1.5 l -0.5,2 h 1 l 0.5000001,-2 h 2 l -0.5,2 h 1 l 0.5,-2 h 1.5 v -1 h -1.25 l 0.5,-2 h 1.75 z"
     id="path2-2-2"/>
</svg>
