<svg
  xmlns="http://www.w3.org/2000/svg"
  id="svg40"
  version="1.1"
  viewBox="0 0 24 24"
  height="24"
  width="24">
  <rect
    transform="matrix(-0.7810109,-0.62451739,-0.62451739,0.7810109,0,0)"
    style="fill:#ffffff;fill-opacity:1;stroke-width:1.95703459"
    y="47.172005"
    x="-75.927536"
    height="6.435183"
    width="10.556566"
    id="rect54-4-7-3"/>
  <path
    id="path38-3-3"
    d="m 11.870876,1.3228615 c -5.7905327,0 -10.5000007,4.709468 -10.5000007,10.5000005 0,2.323866 0.766336,4.461423 2.044922,6.199219 l 0.796875,-0.638672 c -1.152866,-1.553563 -1.841797,-3.466913 -1.841797,-5.560547 0,-5.2494705 4.250531,-9.5000005 9.5000007,-9.5000005 5.249468,0 9.5,4.25053 9.5,9.5000005 0,2.121362 -0.711662,4.054659 -1.894531,5.619141 l 0.802734,0.642578 c 1.308507,-1.748418 2.091797,-3.910741 2.091797,-6.261719 0,-5.7905325 -4.709469,-10.5000005 -10.5,-10.5000005 z m 0,2 c -4.6899857,0 -8.5000007,3.810013 -8.5000007,8.5000005 0,1.526115 0.220828,2.720515 0.873047,3.841797 0.206051,0.354239 0.483815,0.705427 0.792968,1.058594 l 0.765626,-0.613281 c -0.272667,-0.322448 -0.513628,-0.638273 -0.69336,-0.947266 -0.550031,-0.945604 -0.738281,-1.905959 -0.738281,-3.339844 0,-4.1500165 3.349985,-7.5000005 7.5000007,-7.5000005 4.150015,0 7.5,3.349984 7.5,7.5000005 0,1.644836 -0.538788,3.152534 -1.435547,4.384766 l 0.757812,0.607422 c 1.046473,-1.39512 1.677735,-3.111135 1.677735,-4.992188 0,-4.6899875 -3.810015,-8.5000005 -8.5,-8.5000005 z m 0,2 c -3.5808977,0 -6.5000007,2.919104 -6.5000007,6.5000005 0,1.37585 0.440223,2.643202 1.171875,3.69336 l 0.824219,-0.658203 c -0.0087,-0.01229 0.02384,-0.01697 0.04687,-0.02344 l -0.441407,-0.806641 c -0.311844,-0.687922 -0.601562,-1.398181 -0.601562,-2.205078 0,-3.0391035 2.460896,-5.5000005 5.5000007,-5.5000005 3.039103,0 5.5,2.460896 5.5,5.5000005 0,1.175038 -0.400353,2.226714 -1.048828,3.09375 l 0.830078,0.664063 c 0.759488,-1.062089 1.21875,-2.354045 1.21875,-3.757813 0,-3.5808965 -2.919104,-6.5000005 -6.5,-6.5000005 z M 9.6365008,14.881458 c -33.1341148,-41.115887 -16.5670575,-20.5579435 0,0 z m 0,-2e-6 c -33.1341148,-41.115885 -16.5670575,-20.5579435 0,0 z"
    style="font-style:normal;font-variant:normal;font-weight:normal;font-stretch:normal;font-size:medium;line-height:normal;font-family:sans-serif;font-variant-ligatures:normal;font-variant-position:normal;font-variant-caps:normal;font-variant-numeric:normal;font-variant-alternates:normal;font-feature-settings:normal;text-indent:0;text-align:start;text-decoration:none;text-decoration-line:none;text-decoration-style:solid;text-decoration-color:#000000;letter-spacing:normal;word-spacing:normal;text-transform:none;writing-mode:lr-tb;direction:ltr;text-orientation:mixed;dominant-baseline:auto;baseline-shift:baseline;text-anchor:start;white-space:normal;shape-padding:0;clip-rule:nonzero;display:inline;overflow:visible;visibility:visible;opacity:1;isolation:auto;mix-blend-mode:normal;color-interpolation:sRGB;color-interpolation-filters:linearRGB;solid-color:#000000;solid-opacity:1;vector-effect:none;fill-opacity:1;fill-rule:nonzero;stroke:none;stroke-width:1;stroke-linecap:butt;stroke-linejoin:miter;stroke-miterlimit:4;stroke-dasharray:none;stroke-dashoffset:0;stroke-opacity:1;color-rendering:auto;image-rendering:auto;shape-rendering:auto;text-rendering:auto;enable-background:accumulate"/>
  <g
    transform="translate(-40.064671,-70.792372)"
    id="g1118">
    <path
      d="m 56.448072,86.764281 -3.901131,-0.04129 v -0.977224 h 1.603101 c 0.393427,0 0.712489,-0.350092 0.712489,-0.78178 v -3.127119 c 0,-0.431688 -0.319062,-0.781779 -0.712489,-0.781779 h -4.274937 c -0.393427,0 -0.712489,0.350091 -0.712489,0.781779 v 3.127119 c 0,0.431688 0.319062,0.78178 0.712489,0.78178 h 1.603102 v 0.977224 l -3.913674,0.04128 c -0.0099,0.330714 -0.0083,0.874129 -0.005,1.131376 v 0 0.97724 h -1.246855 c -0.393427,0 -0.712489,0.350091 -0.712489,0.78178 v 3.127118 c 0,0.431689 0.319062,0.78178 0.712489,0.78178 h 3.562447 c 0.393428,0 0.71249,-0.350091 0.71249,-0.78178 v -3.127118 c 0,-0.431689 -0.319062,-0.78178 -0.71249,-0.78178 h -1.246856 v -0.977224 h 6.768649 v 0.977224 h -1.246856 c -0.393428,0 -0.712489,0.350091 -0.712489,0.78178 v 3.127118 c 0,0.431689 0.319061,0.78178 0.712489,0.78178 h 3.562447 c 0.393428,0 0.712489,-0.350091 0.712489,-0.78178 v -3.127118 c 0,-0.431689 -0.319061,-0.78178 -0.712489,-0.78178 h -1.246857 v -0.977224 0 z m -5.860477,-2.582078 v -1.563559 h 2.849958 v 1.563559 z M 49.162616,92 h -2.137468 v -1.56356 h 2.137468 z M 57,92 H 54.862531 V 90.43644 H 57 Z"
      id="path2-7"
      style="fill:currentColor;stroke-width:0.02332284"/>
  </g>
  <rect
    transform="rotate(-38.646774)"
    style="fill:#ffffff;fill-opacity:1;stroke-width:1.95703459"
    y="76.330994"
    x="-37.303402"
    height="6.435183"
    width="10.556566"
    id="rect54-2-6"/>
</svg>
