<svg
   xmlns="http://www.w3.org/2000/svg"
   width="24"
   height="24"
   viewBox="0 0 24 24">

  <path
     style="stroke-width:0.95134997"
     d="m 13.403966,3.7289792 c -2.551926,0 -4.7692733,1.6821781 -5.8730473,4.1421031 -2.055112,0.2536054 -3.744142,1.8796222 -4.410156,4.0655097 h 1.939453 c 0.610728,-1.224626 1.737584,-2.0579506 3.044922,-2.0579506 h 0.626953 c 0.582793,-2.367678 2.4466663,-4.0997749 4.6718753,-4.0997749 2.684377,0 4.855469,2.5217893 4.855469,5.6376955 v 0.511967 h 1.326172 c 1.465811,0 2.648437,1.37439 2.648437,3.075839 0,1.701448 -1.182626,3.073824 -2.648437,3.073824 H 8.1051377 c -1.405105,0 -2.606792,-0.957941 -3.175781,-2.336106 h -1.896485 c 0.654337,2.534831 2.677524,4.385993 5.072266,4.385993 H 19.585607 c 2.437132,0 4.414062,-2.294798 4.414062,-5.123711 0,-2.705917 -1.80962,-4.898904 -4.105468,-5.0833982 C 19.293749,6.3848271 16.618154,3.7289792 13.403966,3.7289792 Z"
     id="path57"/>
  <path
     d="M 12.017907,12.702504 H 0.10169371 v 2.100804 H 12.017907 v 3.151203 l 3.958841,-4.201605 -3.958841,-4.2016096 z"
     id="path4-3"
     style="stroke-width:1.02088141" />
</svg>
